<?xml version="1.0" encoding="UTF-8"?>
<!-- Generator: Bez 1.1.0u (15340) - http://www.juicybitssoftware.com/bez -->
<svg width="64.0" height="192.0" version="1.1" xmlns="http://www.w3.org/2000/svg" xmlns:xlink="http://www.w3.org/1999/xlink">
  <title>Contacts-3</title>
  <desc>Created with Bez</desc>
  <g id="Group">
    <path id="Untitled" fill="#000" d="M31.7,35.8 C35.5,35.8 44.5,31.2 44.5,20.0 C44.5,11.3 43.3,4.2 31.7,4.2 C20.2,4.2 19.0,11.3 19.0,20.0 C19.0,31.2 28.0,35.8 31.7,35.8 ZM20.9,17.4 C21.8,15.6 23.8,13.6 27.9,13.7 C27.9,13.7 30.4,19.8 42.5,17.0 C42.6,18.0 42.6,19.0 42.6,20.0 C42.6,25.5 40.2,28.8 38.3,30.7 C35.8,33.1 33.0,33.9 31.7,33.9 C30.5,33.9 27.7,33.1 25.2,30.7 C23.2,28.8 20.9,25.5 20.9,20.0 C20.9,19.1 20.9,18.2 20.9,17.4 Z"/>
    <path id="Untitled-1" fill="#000" d="M55.3,52.0 C54.7,47.9 53.4,42.6 50.7,40.7 C48.8,39.4 42.5,35.9 39.7,34.5 L39.7,34.4 C39.4,34.3 39.0,34.3 38.7,34.5 C37.3,35.7 35.7,36.4 34.1,36.8 C33.8,36.9 33.5,37.1 33.4,37.4 L31.7,41.9 L30.1,37.4 C29.9,37.1 29.7,36.9 29.4,36.8 C27.8,36.4 26.2,35.7 24.8,34.5 C24.5,34.3 24.1,34.3 23.8,34.4 C21.1,35.9 14.6,39.4 12.8,40.7 C9.7,42.8 8.4,50.5 8.1,52.0 C8.1,52.1 8.1,52.3 8.2,52.4 C8.3,52.8 11.1,60.2 31.7,60.2 C52.4,60.2 55.2,52.8 55.3,52.4 C55.3,52.3 55.4,52.1 55.3,52.0 ZM45.8,49.5 L41.8,50.8 L37.8,49.5 L37.8,47.3 L45.8,47.3 L45.8,49.5 L45.8,49.5 Z"/>
  </g>
  <path id="Rectangle" fill="#e4f6ff" stroke="#7d7d7d" stroke-width="1.0" d="M0.0,128.2 L63.5,128.2 L63.5,192.2 L0.0,192.2 L0.0,128.2 Z"/>
  <path id="Rectangle-1" fill="none" stroke="#7d7d7d" stroke-width="1.0" d="M0.0,0.2 L64.0,0.2 L64.0,63.2 L0.0,63.2 L0.0,0.2 Z"/>
  <path id="Rectangle-2" fill="none" stroke="#7d7d7d" stroke-width="1.0" d="M-0.3,63.4 L63.9,63.4 L63.9,128.2 L-0.3,128.2 L-0.3,63.4 Z"/>
  <g id="Group-1">
    <path id="Untitled-2" fill="#7d7d7d" d="M31.7,99.8 C35.5,99.8 44.5,95.2 44.5,84.0 C44.5,75.3 43.3,68.2 31.7,68.2 C20.2,68.2 19.0,75.3 19.0,84.0 C19.0,95.2 28.0,99.8 31.7,99.8 ZM20.9,81.4 C21.8,79.6 23.8,77.6 27.9,77.7 C27.9,77.7 30.4,83.8 42.5,81.1 C42.6,82.0 42.6,83.0 42.6,84.0 C42.6,89.5 40.2,92.8 38.3,94.7 C35.8,97.1 33.0,97.9 31.7,97.9 C30.5,97.9 27.7,97.1 25.2,94.7 C23.2,92.8 20.9,89.5 20.9,84.0 C20.9,83.1 20.9,82.3 20.9,81.4 Z"/>
    <path id="Untitled-3" fill="#7d7d7d" d="M55.3,116.0 C54.7,111.9 53.4,106.6 50.7,104.7 C48.8,103.4 42.5,100.0 39.7,98.5 L39.7,98.4 C39.4,98.3 39.0,98.3 38.7,98.5 C37.3,99.7 35.7,100.4 34.1,100.8 C33.8,100.9 33.5,101.1 33.4,101.4 L31.7,105.9 L30.1,101.4 C29.9,101.1 29.7,100.9 29.4,100.8 C27.8,100.4 26.2,99.7 24.8,98.5 C24.5,98.3 24.1,98.3 23.8,98.4 C21.1,99.9 14.6,103.5 12.8,104.7 C9.7,106.8 8.4,114.5 8.1,116.0 C8.1,116.1 8.1,116.3 8.2,116.4 C8.3,116.8 11.1,124.2 31.7,124.2 C52.4,124.2 55.2,116.8 55.3,116.4 C55.3,116.3 55.4,116.1 55.3,116.0 ZM45.8,113.5 L41.8,114.8 L37.8,113.5 L37.8,111.3 L45.8,111.3 L45.8,113.5 L45.8,113.5 Z"/>
  </g>
  <g id="Group-2">
    <path id="Untitled-4" fill="#000" d="M31.7,163.8 C35.5,163.8 44.5,159.1 44.5,148.0 C44.5,139.3 43.3,132.2 31.7,132.2 C20.2,132.2 19.0,139.3 19.0,148.0 C19.0,159.1 28.0,163.8 31.7,163.8 ZM20.9,145.4 C21.8,143.6 23.8,141.6 27.9,141.7 C27.9,141.7 30.4,147.8 42.5,145.0 C42.6,146.0 42.6,147.0 42.6,148.0 C42.6,153.4 40.2,156.8 38.3,158.7 C35.8,161.0 33.0,161.9 31.7,161.9 C30.5,161.9 27.7,161.0 25.2,158.7 C23.2,156.8 20.9,153.4 20.9,148.0 C20.9,147.1 20.9,146.2 20.9,145.4 Z"/>
    <path id="Untitled-5" fill="#000" d="M55.3,180.0 C54.7,175.9 53.4,170.6 50.7,168.7 C48.8,167.4 42.5,163.9 39.7,162.4 L39.7,162.4 C39.4,162.3 39.0,162.3 38.7,162.5 C37.3,163.6 35.7,164.4 34.1,164.8 C33.8,164.9 33.5,165.1 33.4,165.4 L31.7,169.9 L30.1,165.4 C29.9,165.1 29.7,164.9 29.4,164.8 C27.8,164.4 26.2,163.6 24.8,162.5 C24.5,162.3 24.1,162.3 23.8,162.4 C21.1,163.9 14.6,167.4 12.8,168.7 C9.7,170.8 8.4,178.5 8.1,180.0 C8.1,180.1 8.1,180.3 8.2,180.4 C8.3,180.7 11.1,188.2 31.7,188.2 C52.4,188.2 55.2,180.7 55.3,180.4 C55.3,180.3 55.4,180.1 55.3,180.0 ZM45.8,177.5 L41.8,178.7 L37.8,177.5 L37.8,175.3 L45.8,175.3 L45.8,177.5 L45.8,177.5 Z"/>
  </g>
</svg>
