<?xml version="1.0" encoding="UTF-8"?>
<!-- Generator: Bez 1.1.0u (15340) - http://www.juicybitssoftware.com/bez -->
<svg width="64.0" height="192.0" version="1.1" xmlns="http://www.w3.org/2000/svg" xmlns:xlink="http://www.w3.org/1999/xlink">
  <title>Customers-3</title>
  <desc>Created with Bez</desc>
  <path id="Rectangle" fill="none" stroke="#7d7d7d" stroke-width="1.0" d="M0.0,64.0 L64.0,64.0 L64.0,128.0 L0.0,128.0 L0.0,64.0 Z"/>
  <path id="Rectangle-1" fill="none" stroke="#7d7d7d" stroke-width="1.0" d="M-0.1,0.0 L64.0,0.0 L64.0,64.0 L-0.1,64.0 L-0.1,0.0 Z"/>
  <path id="Rectangle-2" fill="#e4f6ff" stroke="#7d7d7d" stroke-width="1.0" d="M-0.1,128.0 L64.0,128.0 L64.0,192.0 L-0.1,192.0 L-0.1,128.0 Z"/>
  <g id="Group">
    <g id="Group-1">
      <path id="Untitled" fill="#000" d="M13.3,4.0 L4.0,23.2 L60.0,23.5 L50.7,4.0 L13.3,4.0 Z"/>
      <path id="Untitled-1" fill="#000" d="M6.3,30.8 L6.3,60.0 L36.7,60.0 L36.7,33.2 L50.7,33.2 L50.7,60.0 L57.7,60.0 L57.7,30.8 L6.3,30.8 ZM32.0,47.8 L13.3,47.8 L13.3,33.2 L32.0,33.2 L32.0,47.8 Z"/>
    </g>
  </g>
  <g id="Group-2">
    <g id="Group-3">
      <path id="Untitled-2" fill="#7d7d7d" d="M13.3,68.0 L4.0,87.2 L60.0,87.5 L50.7,68.0 L13.3,68.0 Z"/>
      <path id="Untitled-3" fill="#7d7d7d" d="M6.3,94.8 L6.3,124.0 L36.7,124.0 L36.7,97.2 L50.7,97.2 L50.7,124.0 L57.7,124.0 L57.7,94.8 L6.3,94.8 ZM32.0,111.8 L13.3,111.8 L13.3,97.2 L32.0,97.2 L32.0,111.8 Z"/>
    </g>
  </g>
  <g id="Group-4">
    <g id="Group-5">
      <path id="Untitled-4" fill="#000" d="M13.3,132.0 L4.0,151.2 L60.0,151.5 L50.7,132.0 L13.3,132.0 Z"/>
      <path id="Untitled-5" fill="#000" d="M6.3,158.8 L6.3,188.0 L36.7,188.0 L36.7,161.2 L50.7,161.2 L50.7,188.0 L57.7,188.0 L57.7,158.8 L6.3,158.8 ZM32.0,175.8 L13.3,175.8 L13.3,161.2 L32.0,161.2 L32.0,175.8 Z"/>
    </g>
  </g>
</svg>
