<?xml version="1.0" encoding="UTF-8"?>
<!-- Generator: Bez 1.1.0u (15340) - http://www.juicybitssoftware.com/bez -->
<svg width="64.0" height="192.0" version="1.1" xmlns="http://www.w3.org/2000/svg" xmlns:xlink="http://www.w3.org/1999/xlink">
  <title>Inventory3</title>
  <desc>Created with Bez</desc>
  <path id="Rectangle" fill="#e4f6ff" stroke="#7d7d7d" stroke-width="1.0" d="M-0.1,128.0 L64.0,128.0 L64.0,192.0 L-0.1,192.0 L-0.1,128.0 Z"/>
  <path id="Rectangle-1" fill="none" stroke="#7d7d7d" stroke-width="1.0" d="M-0.1,0.0 L64.0,0.0 L64.0,64.0 L-0.1,64.0 L-0.1,0.0 Z"/>
  <path id="Rectangle-2" fill="none" stroke="#7d7d7d" stroke-width="1.0" d="M0.0,64.0 L64.0,64.0 L64.0,128.0 L0.0,128.0 L0.0,64.0 Z"/>
  <g id="Group">
    <path id="Untitled" fill="#d6d6d6" d="M58.7,16.0 L32.0,5.5 L5.3,16.0 L5.3,48.0 L32.0,58.5 L58.7,48.0 L58.7,16.0 Z"/>
    <path id="Untitled-1" fill="#d6d6d6" d="M58.7,16.0 L32.0,5.5 L5.3,16.0 L5.3,48.0 L32.0,58.5 L58.7,48.0 L58.7,16.0 ZM58.7,16.0 L32.0,5.5"/>
    <path id="Untitled-2" fill="#000" d="M32.0,60.0 C31.9,60.0 31.7,60.0 31.6,59.9 L4.9,49.4 C4.4,49.2 4.0,48.6 4.0,48.0 L4.0,16.0 C4.0,15.3 4.4,14.8 4.9,14.6 L31.6,4.1 C32.3,3.8 33.0,4.2 33.2,5.0 C33.5,5.8 33.1,6.6 32.4,6.9 L6.7,17.0 L6.7,47.0 L32.4,57.1 C33.2,57.4 33.5,58.2 33.2,59.0 C33.1,59.6 32.5,60.0 32.0,60.0 Z"/>
    <path id="Untitled-3" fill="#d6d6d6" d="M58.7,16.0 L32.0,5.5 M58.7,16.0 L32.0,5.5"/>
    <path id="Untitled-4" fill="#000" d="M60.0,16.0 C60.0,15.4 59.6,14.8 59.1,14.6 L44.1,8.7 C43.7,8.5 43.4,8.6 43.1,8.7 C42.6,9.0 16.4,19.2 16.4,19.2 C15.8,19.5 15.3,20.2 15.3,21.0 L15.3,27.9 C15.3,28.5 15.7,29.0 16.2,29.2 L19.7,30.6 C20.6,31.0 21.5,30.3 21.5,29.2 L21.5,23.5 C21.5,22.7 21.9,22.0 22.6,21.7 L46.2,12.7 L54.7,16.0 L31.6,25.0 L31.6,25.0 C31.1,25.2 30.7,25.8 30.7,26.4 L30.7,56.4 L6.7,47.0 L6.7,17.0 L32.4,6.9 C33.2,6.6 33.5,5.8 33.2,5.0 C33.0,4.2 32.2,3.8 31.6,4.1 L4.9,14.6 C4.4,14.8 4.0,15.4 4.0,16.0 L4.0,48.0 C4.0,48.7 4.4,49.2 4.9,49.4 L31.6,59.9 L31.6,59.9 C31.7,59.9 31.9,60.0 32.0,60.0 C32.1,60.0 32.3,59.9 32.4,59.9 L59.1,49.4 C59.6,49.2 60.0,48.6 60.0,48.0 L60.0,16.0 L60.0,16.0 Z"/>
  </g>
  <g id="Group-1">
    <path id="Untitled-5" fill="#d6d6d6" d="M58.7,80.0 L32.0,69.5 L5.3,80.0 L5.3,112.0 L32.0,122.5 L58.7,112.0 L58.7,80.0 Z"/>
    <path id="Untitled-6" fill="#d6d6d6" d="M58.7,80.0 L32.0,69.5 L5.3,80.0 L5.3,112.0 L32.0,122.5 L58.7,112.0 L58.7,80.0 ZM58.7,80.0 L32.0,69.5"/>
    <path id="Untitled-7" fill="#000" d="M32.0,124.0 C31.9,124.0 31.7,124.0 31.6,123.9 L4.9,113.4 C4.4,113.2 4.0,112.6 4.0,112.0 L4.0,80.0 C4.0,79.3 4.4,78.8 4.9,78.6 L31.6,68.1 C32.3,67.8 33.0,68.2 33.2,69.0 C33.5,69.8 33.1,70.6 32.4,70.9 L6.7,81.0 L6.7,111.0 L32.4,121.1 C33.2,121.4 33.5,122.2 33.2,123.0 C33.1,123.6 32.5,124.0 32.0,124.0 Z"/>
    <path id="Untitled-8" fill="#d6d6d6" d="M58.7,80.0 L32.0,69.5 M58.7,80.0 L32.0,69.5"/>
    <path id="Untitled-9" fill="#000" d="M60.0,80.0 C60.0,79.4 59.6,78.8 59.1,78.6 L44.1,72.7 C43.7,72.5 43.4,72.6 43.1,72.7 C42.6,73.0 16.4,83.2 16.4,83.2 C15.8,83.5 15.3,84.2 15.3,85.0 L15.3,91.9 C15.3,92.5 15.7,93.0 16.2,93.2 L19.7,94.6 C20.6,95.0 21.5,94.3 21.5,93.2 L21.5,87.5 C21.5,86.7 21.9,86.0 22.6,85.7 L46.2,76.7 L54.7,80.0 L31.6,89.0 L31.6,89.0 C31.1,89.2 30.7,89.8 30.7,90.4 L30.7,120.4 L6.7,111.0 L6.7,81.0 L32.4,70.9 C33.2,70.6 33.5,69.8 33.2,69.0 C33.0,68.2 32.2,67.8 31.6,68.1 L4.9,78.6 C4.4,78.8 4.0,79.4 4.0,80.0 L4.0,112.0 C4.0,112.7 4.4,113.2 4.9,113.4 L31.6,123.9 L31.6,123.9 C31.7,123.9 31.9,124.0 32.0,124.0 C32.1,124.0 32.3,123.9 32.4,123.9 L59.1,113.4 C59.6,113.2 60.0,112.6 60.0,112.0 L60.0,80.0 L60.0,80.0 Z"/>
  </g>
  <g id="Group-2">
    <path id="Untitled-10" fill="#d6d6d6" d="M58.7,144.0 L32.0,133.5 L5.3,144.0 L5.3,176.0 L32.0,186.5 L58.7,176.0 L58.7,144.0 Z"/>
    <path id="Untitled-11" fill="#d6d6d6" d="M58.7,144.0 L32.0,133.5 L5.3,144.0 L5.3,176.0 L32.0,186.5 L58.7,176.0 L58.7,144.0 ZM58.7,144.0 L32.0,133.5"/>
    <path id="Untitled-12" fill="#000" d="M32.0,188.0 C31.9,188.0 31.7,188.0 31.6,187.9 L4.9,177.4 C4.4,177.2 4.0,176.6 4.0,176.0 L4.0,144.0 C4.0,143.3 4.4,142.8 4.9,142.6 L31.6,132.1 C32.3,131.8 33.0,132.2 33.2,133.0 C33.5,133.8 33.1,134.6 32.4,134.9 L6.7,145.0 L6.7,175.0 L32.4,185.1 C33.2,185.4 33.5,186.2 33.2,187.0 C33.1,187.6 32.5,188.0 32.0,188.0 Z"/>
    <path id="Untitled-13" fill="#d6d6d6" d="M58.7,144.0 L32.0,133.5 M58.7,144.0 L32.0,133.5"/>
    <path id="Untitled-14" fill="#000" d="M60.0,144.0 C60.0,143.4 59.6,142.8 59.1,142.6 L44.1,136.7 C43.7,136.5 43.4,136.6 43.1,136.7 C42.6,137.0 16.4,147.2 16.4,147.2 C15.8,147.5 15.3,148.2 15.3,149.0 L15.3,155.9 C15.3,156.5 15.7,157.0 16.2,157.2 L19.7,158.6 C20.6,159.0 21.5,158.3 21.5,157.2 L21.5,151.5 C21.5,150.7 21.9,150.0 22.6,149.7 L46.2,140.7 L54.7,144.0 L31.6,153.0 L31.6,153.0 C31.1,153.2 30.7,153.8 30.7,154.4 L30.7,184.4 L6.7,175.0 L6.7,145.0 L32.4,134.9 C33.2,134.6 33.5,133.8 33.2,133.0 C33.0,132.2 32.2,131.8 31.6,132.1 L4.9,142.6 C4.4,142.8 4.0,143.4 4.0,144.0 L4.0,176.0 C4.0,176.7 4.4,177.2 4.9,177.4 L31.6,187.9 L31.6,187.9 C31.7,187.9 31.9,188.0 32.0,188.0 C32.1,188.0 32.3,187.9 32.4,187.9 L59.1,177.4 C59.6,177.2 60.0,176.6 60.0,176.0 L60.0,144.0 L60.0,144.0 Z"/>
  </g>
</svg>
