<?xml version="1.0" encoding="UTF-8"?>
<!-- Generator: Bez 1.1.0u (15340) - http://www.juicybitssoftware.com/bez -->
<svg width="64.0" height="192.0" version="1.1" xmlns="http://www.w3.org/2000/svg" xmlns:xlink="http://www.w3.org/1999/xlink">
  <title>Untitled (3)</title>
  <desc>Created with Bez</desc>
  <path id="Rectangle" fill="#e4f6ff" stroke="#7d7d7d" stroke-width="1.0" d="M-0.1,128.0 L64.0,128.0 L64.0,192.0 L-0.1,192.0 L-0.1,128.0 Z"/>
  <path id="Rectangle-1" fill="none" stroke="#7d7d7d" stroke-width="1.0" d="M-0.1,0.0 L64.0,0.0 L64.0,64.0 L-0.1,64.0 L-0.1,0.0 Z"/>
  <path id="Rectangle-2" fill="none" stroke="#7d7d7d" stroke-width="1.0" d="M0.0,64.0 L64.0,64.0 L64.0,128.0 L0.0,128.0 L0.0,64.0 Z"/>
  <g id="Group">
    <path id="Untitled" fill="#000" d="M28.9,24.6 C37.7,24.6 36.9,24.6 45.9,24.6 C48.1,24.6 48.1,21.5 45.9,21.5 C37.0,21.5 37.9,21.5 28.9,21.5 C26.7,21.5 26.7,24.6 28.9,24.6 Z"/>
    <path id="Untitled-1" fill="#000" d="M21.4,19.6 L20.9,20.3 C20.3,21.0 19.6,21.9 19.1,22.6 L19.1,22.6 L18.8,22.4 C18.2,21.8 17.0,22.0 16.7,22.7 C16.4,23.1 16.6,23.6 17.0,24.0 L17.3,24.4 C17.7,24.9 18.1,25.2 18.7,25.7 C18.9,26.0 19.2,26.1 19.6,26.1 C20.2,26.1 20.7,25.7 20.9,25.2 C21.3,24.0 22.2,22.9 23.1,21.8 C23.2,21.5 23.5,21.3 23.6,21.0 C23.9,20.6 23.9,20.3 23.8,19.9 C23.2,19.0 22.0,18.9 21.4,19.6 Z"/>
    <path id="Untitled-2" fill="#000" d="M20.6,28.1 L20.0,28.8 C19.5,29.6 18.8,30.4 18.2,31.2 L18.2,31.2 L18.0,30.8 C17.4,30.2 16.2,30.4 15.9,31.2 C15.6,31.6 15.7,32.1 16.2,32.4 L16.4,32.8 C16.9,33.3 17.3,33.7 17.8,34.2 C18.1,34.4 18.4,34.5 18.8,34.5 C19.3,34.5 19.9,34.2 20.0,33.7 C20.4,32.4 21.4,31.3 22.2,30.2 C22.4,30.0 22.7,29.7 22.8,29.5 C23.1,29.1 23.1,28.7 22.9,28.3 C22.4,27.6 21.1,27.5 20.6,28.1 Z"/>
    <path id="Untitled-3" fill="#000" d="M20.6,36.8 L20.0,37.4 C19.5,38.1 18.8,39.0 18.2,39.8 L18.2,39.8 L18.0,39.4 C17.4,38.8 16.2,39.0 15.9,39.8 C15.6,40.1 15.7,40.6 16.2,41.0 L16.4,41.4 C16.9,41.9 17.3,42.2 17.8,42.7 C18.1,43.0 18.4,43.1 18.8,43.1 C19.3,43.1 19.9,42.7 20.0,42.2 C20.4,41.0 21.4,39.9 22.2,38.8 C22.4,38.5 22.7,38.3 22.8,38.0 C23.1,37.6 23.1,37.3 22.9,36.9 C22.4,36.2 21.1,36.0 20.6,36.8 Z"/>
    <path id="Untitled-4" fill="#000" d="M20.6,45.6 L20.0,46.2 C19.5,47.0 18.8,47.8 18.2,48.6 L18.2,48.6 L18.0,48.2 C17.4,47.6 16.2,47.8 15.9,48.6 C15.6,48.9 15.7,49.4 16.2,49.8 L16.4,50.2 C16.9,50.7 17.3,51.1 17.8,51.6 C18.1,51.8 18.4,51.9 18.8,51.9 C19.3,51.9 19.9,51.6 20.0,51.1 C20.4,49.8 21.4,48.7 22.2,47.6 C22.4,47.3 22.7,47.1 22.8,46.8 C23.1,46.5 23.1,46.1 22.9,45.7 C22.4,45.0 21.1,44.9 20.6,45.6 Z"/>
    <path id="Untitled-5" fill="#000" d="M40.4,59.9 L46.5,59.9 L46.5,55.9 C50.9,54.9 53.5,52.2 53.5,48.5 L53.5,48.5 C53.5,44.6 51.3,42.4 46.2,40.8 L46.2,40.8 C44.2,40.1 42.2,39.4 42.2,38.5 L42.2,38.5 C42.2,37.5 43.7,37.4 44.5,37.4 L44.5,37.4 C47.1,37.4 48.8,38.1 49.8,38.6 L49.8,38.6 L50.9,39.1 L51.2,38.0 L52.7,33.2 L51.9,32.9 C50.9,32.6 49.2,31.9 46.6,31.7 L46.6,31.7 L46.6,28.3 L40.5,28.3 L40.5,31.9 C36.4,32.9 33.7,35.7 33.7,39.1 L33.7,39.1 C33.7,43.6 38.0,45.6 41.6,46.7 L41.6,46.7 C44.8,47.7 45.2,48.3 45.2,48.9 L45.2,48.9 C45.2,49.8 43.7,50.3 42.4,50.3 L42.4,50.3 C39.8,50.3 37.5,49.4 36.2,48.8 L36.2,48.8 L35.0,48.2 L33.3,54.3 L33.3,54.3 L34.0,54.7 C35.5,55.4 37.9,56.0 40.2,56.3 L40.2,56.3 C40.4,56.4 40.4,59.9 40.4,59.9 Z"/>
    <path id="Untitled-6" fill="#000" d="M31.8,46.7 C31.0,46.7 30.0,46.7 28.9,46.7 C26.7,46.7 26.7,49.8 28.9,49.8 C29.7,49.8 30.3,49.8 31.0,49.8 L31.8,46.7 Z"/>
    <path id="Untitled-7" fill="#000" d="M30.3,39.3 C30.3,38.9 30.3,38.5 30.4,38.1 C30.0,38.1 29.4,38.1 28.9,38.1 C26.7,38.1 26.7,41.3 28.9,41.3 C29.4,41.3 30.0,41.3 30.5,41.3 C30.4,40.6 30.3,40.0 30.3,39.3 Z"/>
    <path id="Untitled-8" fill="#000" d="M36.6,30.1 C34.8,30.1 32.8,30.1 28.9,30.1 C26.7,30.1 26.7,33.2 28.9,33.2 C30.3,33.2 31.5,33.2 32.5,33.2 C33.6,31.9 35.0,30.8 36.6,30.1 Z"/>
    <path id="Untitled-9" fill="#000" d="M56.0,44.2 L56.0,33.9 L53.8,41.4 C54.6,42.1 55.4,43.1 56.0,44.2 Z"/>
    <path id="Untitled-10" fill="#000" d="M36.9,59.9 C36.9,59.6 36.9,59.3 36.9,59.0 C35.1,58.6 33.6,58.1 32.2,57.4 L31.4,56.9 L30.1,56.2 L12.1,56.2 L12.1,7.7 L44.9,7.7 L44.9,13.7 L51.9,13.7 L51.9,29.7 C52.4,29.8 52.8,30.1 53.2,30.2 L56.0,31.3 L56.0,11.8 L47.0,4.0 L8.0,4.0 L8.0,60.0 L36.9,59.9 L36.9,59.9 Z"/>
    <path id="Untitled-11" fill="#000" d="M39.8,59.5 L40.0,59.5 L39.8,59.5 C40.0,59.5 39.8,59.5 39.8,59.5 Z"/>
    <path id="Untitled-12" fill="#000" d="M49.9,58.1 L49.9,59.9 L56.0,59.9 L56.0,52.7 C54.9,55.2 52.7,57.0 49.9,58.1 Z"/>
  </g>
  <g id="Group-1">
    <path id="Untitled-13" fill="#7d7d7d" d="M28.9,88.6 C37.7,88.6 36.9,88.6 45.9,88.6 C48.1,88.6 48.1,85.5 45.9,85.5 C37.0,85.5 37.9,85.5 28.9,85.5 C26.7,85.5 26.7,88.6 28.9,88.6 Z"/>
    <path id="Untitled-14" fill="#7d7d7d" d="M21.4,83.6 L20.9,84.3 C20.3,85.0 19.6,85.9 19.1,86.6 L19.1,86.6 L18.8,86.4 C18.2,85.8 17.0,86.0 16.7,86.7 C16.4,87.1 16.6,87.6 17.0,88.0 L17.3,88.4 C17.7,88.9 18.1,89.2 18.7,89.7 C18.9,90.0 19.2,90.1 19.6,90.1 C20.2,90.1 20.7,89.7 20.9,89.2 C21.3,88.0 22.2,86.9 23.1,85.8 C23.2,85.5 23.5,85.3 23.6,85.0 C23.9,84.6 23.9,84.3 23.8,83.9 C23.2,83.0 22.0,82.9 21.4,83.6 Z"/>
    <path id="Untitled-15" fill="#7d7d7d" d="M20.6,92.1 L20.0,92.8 C19.5,93.6 18.8,94.4 18.2,95.2 L18.2,95.2 L18.0,94.8 C17.4,94.2 16.2,94.4 15.9,95.2 C15.6,95.6 15.7,96.1 16.2,96.4 L16.4,96.8 C16.9,97.3 17.3,97.7 17.8,98.2 C18.1,98.4 18.4,98.5 18.8,98.5 C19.3,98.5 19.9,98.2 20.0,97.7 C20.4,96.4 21.4,95.3 22.2,94.2 C22.4,94.0 22.7,93.7 22.8,93.5 C23.1,93.1 23.1,92.7 22.9,92.3 C22.4,91.6 21.1,91.5 20.6,92.1 Z"/>
    <path id="Untitled-16" fill="#7d7d7d" d="M20.6,100.8 L20.0,101.4 C19.5,102.1 18.8,103.0 18.2,103.8 L18.2,103.8 L18.0,103.4 C17.4,102.8 16.2,103.0 15.9,103.8 C15.6,104.1 15.7,104.6 16.2,105.0 L16.4,105.4 C16.9,105.9 17.3,106.2 17.8,106.7 C18.1,107.0 18.4,107.1 18.8,107.1 C19.3,107.1 19.9,106.7 20.0,106.2 C20.4,105.0 21.4,103.9 22.2,102.8 C22.4,102.5 22.7,102.3 22.8,102.0 C23.1,101.6 23.1,101.3 22.9,100.9 C22.4,100.2 21.1,100.0 20.6,100.8 Z"/>
    <path id="Untitled-17" fill="#7d7d7d" d="M20.6,109.6 L20.0,110.2 C19.5,111.0 18.8,111.8 18.2,112.6 L18.2,112.6 L18.0,112.2 C17.4,111.6 16.2,111.8 15.9,112.6 C15.6,112.9 15.7,113.4 16.2,113.8 L16.4,114.2 C16.9,114.7 17.3,115.1 17.8,115.6 C18.1,115.8 18.4,115.9 18.8,115.9 C19.3,115.9 19.9,115.6 20.0,115.1 C20.4,113.8 21.4,112.7 22.2,111.6 C22.4,111.3 22.7,111.1 22.8,110.8 C23.1,110.5 23.1,110.1 22.9,109.7 C22.4,109.0 21.1,108.9 20.6,109.6 Z"/>
    <path id="Untitled-18" fill="#7d7d7d" d="M40.4,123.9 L46.5,123.9 L46.5,119.9 C50.9,118.9 53.5,116.2 53.5,112.5 L53.5,112.5 C53.5,108.6 51.3,106.4 46.2,104.8 L46.2,104.8 C44.2,104.1 42.2,103.4 42.2,102.5 L42.2,102.5 C42.2,101.5 43.7,101.4 44.5,101.4 L44.5,101.4 C47.1,101.4 48.8,102.1 49.8,102.6 L49.8,102.6 L50.9,103.1 L51.2,102.0 L52.7,97.2 L51.9,96.9 C50.9,96.6 49.2,95.9 46.6,95.7 L46.6,95.7 L46.6,92.3 L40.5,92.3 L40.5,95.9 C36.4,96.9 33.7,99.7 33.7,103.1 L33.7,103.1 C33.7,107.6 38.0,109.6 41.6,110.7 L41.6,110.7 C44.8,111.7 45.2,112.3 45.2,112.9 L45.2,112.9 C45.2,113.8 43.7,114.3 42.4,114.3 L42.4,114.3 C39.8,114.3 37.5,113.4 36.2,112.8 L36.2,112.8 L35.0,112.2 L33.3,118.3 L33.3,118.3 L34.0,118.7 C35.5,119.4 37.9,120.0 40.2,120.3 L40.2,120.3 C40.4,120.4 40.4,123.9 40.4,123.9 Z"/>
    <path id="Untitled-19" fill="#7d7d7d" d="M31.8,110.7 C31.0,110.7 30.0,110.7 28.9,110.7 C26.7,110.7 26.7,113.8 28.9,113.8 C29.7,113.8 30.3,113.8 31.0,113.8 L31.8,110.7 Z"/>
    <path id="Untitled-20" fill="#7d7d7d" d="M30.3,103.3 C30.3,102.9 30.3,102.5 30.4,102.1 C30.0,102.1 29.4,102.1 28.9,102.1 C26.7,102.1 26.7,105.3 28.9,105.3 C29.4,105.3 30.0,105.3 30.5,105.3 C30.4,104.6 30.3,104.0 30.3,103.3 Z"/>
    <path id="Untitled-21" fill="#7d7d7d" d="M36.6,94.1 C34.8,94.1 32.8,94.1 28.9,94.1 C26.7,94.1 26.7,97.2 28.9,97.2 C30.3,97.2 31.5,97.2 32.5,97.2 C33.6,95.9 35.0,94.8 36.6,94.1 Z"/>
    <path id="Untitled-22" fill="#7d7d7d" d="M56.0,108.2 L56.0,97.9 L53.8,105.4 C54.6,106.1 55.4,107.1 56.0,108.2 Z"/>
    <path id="Untitled-23" fill="#7d7d7d" d="M36.9,123.9 C36.9,123.6 36.9,123.3 36.9,123.0 C35.1,122.6 33.6,122.1 32.2,121.4 L31.4,120.9 L30.1,120.2 L12.1,120.2 L12.1,71.7 L44.9,71.7 L44.9,77.7 L51.9,77.7 L51.9,93.7 C52.4,93.8 52.8,94.1 53.2,94.2 L56.0,95.3 L56.0,75.8 L47.0,68.0 L8.0,68.0 L8.0,124.0 L36.9,123.9 L36.9,123.9 Z"/>
    <path id="Untitled-24" fill="#7d7d7d" d="M39.8,123.5 L40.0,123.5 L39.8,123.5 C40.0,123.5 39.8,123.5 39.8,123.5 Z"/>
    <path id="Untitled-25" fill="#7d7d7d" d="M49.9,122.1 L49.9,123.9 L56.0,123.9 L56.0,116.7 C54.9,119.2 52.7,121.0 49.9,122.1 Z"/>
  </g>
  <g id="Group-2">
    <path id="Untitled-26" fill="#000" d="M28.9,152.6 C37.7,152.6 36.9,152.6 45.9,152.6 C48.1,152.6 48.1,149.5 45.9,149.5 C37.0,149.5 37.9,149.5 28.9,149.5 C26.7,149.5 26.7,152.6 28.9,152.6 Z"/>
    <path id="Untitled-27" fill="#000" d="M21.4,147.6 L20.9,148.3 C20.3,149.0 19.6,149.9 19.1,150.6 L19.1,150.6 L18.8,150.4 C18.2,149.8 17.0,150.0 16.7,150.7 C16.4,151.1 16.6,151.6 17.0,152.0 L17.3,152.4 C17.7,152.9 18.1,153.2 18.7,153.7 C18.9,154.0 19.2,154.1 19.6,154.1 C20.2,154.1 20.7,153.7 20.9,153.2 C21.3,152.0 22.2,150.9 23.1,149.8 C23.2,149.5 23.5,149.3 23.6,149.0 C23.9,148.6 23.9,148.3 23.8,147.9 C23.2,147.0 22.0,146.9 21.4,147.6 Z"/>
    <path id="Untitled-28" fill="#000" d="M20.6,156.1 L20.0,156.8 C19.5,157.6 18.8,158.4 18.2,159.2 L18.2,159.2 L18.0,158.8 C17.4,158.2 16.2,158.4 15.9,159.2 C15.6,159.6 15.7,160.1 16.2,160.4 L16.4,160.8 C16.9,161.3 17.3,161.7 17.8,162.2 C18.1,162.4 18.4,162.5 18.8,162.5 C19.3,162.5 19.9,162.2 20.0,161.7 C20.4,160.4 21.4,159.3 22.2,158.2 C22.4,158.0 22.7,157.7 22.8,157.5 C23.1,157.1 23.1,156.7 22.9,156.3 C22.4,155.6 21.1,155.5 20.6,156.1 Z"/>
    <path id="Untitled-29" fill="#000" d="M20.6,164.8 L20.0,165.4 C19.5,166.1 18.8,167.0 18.2,167.8 L18.2,167.8 L18.0,167.4 C17.4,166.8 16.2,167.0 15.9,167.8 C15.6,168.1 15.7,168.6 16.2,169.0 L16.4,169.4 C16.9,169.9 17.3,170.2 17.8,170.7 C18.1,171.0 18.4,171.1 18.8,171.1 C19.3,171.1 19.9,170.7 20.0,170.2 C20.4,169.0 21.4,167.9 22.2,166.8 C22.4,166.5 22.7,166.3 22.8,166.0 C23.1,165.6 23.1,165.3 22.9,164.9 C22.4,164.2 21.1,164.0 20.6,164.8 Z"/>
    <path id="Untitled-30" fill="#000" d="M20.6,173.6 L20.0,174.2 C19.5,175.0 18.8,175.8 18.2,176.6 L18.2,176.6 L18.0,176.2 C17.4,175.6 16.2,175.8 15.9,176.6 C15.6,176.9 15.7,177.4 16.2,177.8 L16.4,178.2 C16.9,178.7 17.3,179.1 17.8,179.6 C18.1,179.8 18.4,179.9 18.8,179.9 C19.3,179.9 19.9,179.6 20.0,179.1 C20.4,177.8 21.4,176.7 22.2,175.6 C22.4,175.3 22.7,175.1 22.8,174.8 C23.1,174.5 23.1,174.1 22.9,173.7 C22.4,173.0 21.1,172.9 20.6,173.6 Z"/>
    <path id="Untitled-31" fill="#000" d="M40.4,187.9 L46.5,187.9 L46.5,183.9 C50.9,182.9 53.5,180.2 53.5,176.5 L53.5,176.5 C53.5,172.6 51.3,170.4 46.2,168.8 L46.2,168.8 C44.2,168.1 42.2,167.4 42.2,166.5 L42.2,166.5 C42.2,165.5 43.7,165.4 44.5,165.4 L44.5,165.4 C47.1,165.4 48.8,166.1 49.8,166.6 L49.8,166.6 L50.9,167.1 L51.2,166.0 L52.7,161.2 L51.9,160.9 C50.9,160.6 49.2,159.9 46.6,159.7 L46.6,159.7 L46.6,156.3 L40.5,156.3 L40.5,159.9 C36.4,160.9 33.7,163.7 33.7,167.1 L33.7,167.1 C33.7,171.6 38.0,173.6 41.6,174.7 L41.6,174.7 C44.8,175.7 45.2,176.3 45.2,176.9 L45.2,176.9 C45.2,177.8 43.7,178.3 42.4,178.3 L42.4,178.3 C39.8,178.3 37.5,177.4 36.2,176.8 L36.2,176.8 L35.0,176.2 L33.3,182.3 L33.3,182.3 L34.0,182.7 C35.5,183.4 37.9,184.0 40.2,184.3 L40.2,184.3 C40.4,184.4 40.4,187.9 40.4,187.9 Z"/>
    <path id="Untitled-32" fill="#000" d="M31.8,174.7 C31.0,174.7 30.0,174.7 28.9,174.7 C26.7,174.7 26.7,177.8 28.9,177.8 C29.7,177.8 30.3,177.8 31.0,177.8 L31.8,174.7 Z"/>
    <path id="Untitled-33" fill="#000" d="M30.3,167.3 C30.3,166.9 30.3,166.5 30.4,166.1 C30.0,166.1 29.4,166.1 28.9,166.1 C26.7,166.1 26.7,169.3 28.9,169.3 C29.4,169.3 30.0,169.3 30.5,169.3 C30.4,168.6 30.3,168.0 30.3,167.3 Z"/>
    <path id="Untitled-34" fill="#000" d="M36.6,158.1 C34.8,158.1 32.8,158.1 28.9,158.1 C26.7,158.1 26.7,161.2 28.9,161.2 C30.3,161.2 31.5,161.2 32.5,161.2 C33.6,159.9 35.0,158.8 36.6,158.1 Z"/>
    <path id="Untitled-35" fill="#000" d="M56.0,172.2 L56.0,161.9 L53.8,169.4 C54.6,170.1 55.4,171.1 56.0,172.2 Z"/>
    <path id="Untitled-36" fill="#000" d="M36.9,187.9 C36.9,187.6 36.9,187.3 36.9,187.0 C35.1,186.6 33.6,186.1 32.2,185.4 L31.4,184.9 L30.1,184.2 L12.1,184.2 L12.1,135.7 L44.9,135.7 L44.9,141.7 L51.9,141.7 L51.9,157.7 C52.4,157.8 52.8,158.1 53.2,158.2 L56.0,159.3 L56.0,139.8 L47.0,132.0 L8.0,132.0 L8.0,188.0 L36.9,187.9 L36.9,187.9 Z"/>
    <path id="Untitled-37" fill="#000" d="M39.8,187.5 L40.0,187.5 L39.8,187.5 C40.0,187.5 39.8,187.5 39.8,187.5 Z"/>
    <path id="Untitled-38" fill="#000" d="M49.9,186.1 L49.9,187.9 L56.0,187.9 L56.0,180.7 C54.9,183.2 52.7,185.0 49.9,186.1 Z"/>
  </g>
</svg>
