<?xml version="1.0" encoding="UTF-8"?>
<!-- Generator: Bez 1.1.0u (15340) - http://www.juicybitssoftware.com/bez -->
<svg width="66.0" height="194.0" version="1.1" xmlns="http://www.w3.org/2000/svg" xmlns:xlink="http://www.w3.org/1999/xlink">
  <title>Interactions-3</title>
  <desc>Created with Bez</desc>
  <path id="Untitled" fill="#000" d="M27.8,4.0 L27.8,4.0 C40.7,4.0 51.2,13.6 51.2,25.4 C51.2,37.3 40.7,46.9 27.8,46.9 C26.6,46.9 25.4,46.8 24.2,46.6 C19.2,52.3 13.4,53.3 7.6,53.4 L7.6,52.0 C10.7,50.3 13.2,47.2 13.2,43.6 C13.2,43.1 13.2,42.6 13.2,42.1 C7.9,38.1 4.5,32.1 4.5,25.4 C4.5,13.6 14.9,4.0 27.8,4.0 ZM52.9,52.0 C52.9,55.1 54.7,57.8 57.4,59.3 L57.4,60.5 C52.4,60.4 47.8,59.5 43.4,54.6 C42.4,54.8 41.4,54.9 40.3,54.9 C35.6,54.9 31.4,53.4 27.9,51.1 C35.0,51.0 41.6,48.5 46.7,43.8 C49.2,41.5 51.2,38.8 52.6,35.7 C54.1,32.4 54.9,29.0 54.9,25.4 C54.9,24.8 54.8,24.3 54.8,23.7 C58.3,27.0 60.5,31.5 60.5,36.5 C60.5,42.2 57.6,47.4 53.0,50.8 C52.9,51.2 52.9,51.6 52.9,52.0 Z"/>
  <g id="Group">
    <path id="Rectangle" fill="#e4f6ff" stroke="#7d7d7d" stroke-width="1.0" d="M0.5,128.5 L64.6,128.5 L64.6,192.5 L0.5,192.5 L0.5,128.5 Z"/>
    <path id="Rectangle-1" fill="none" stroke="#7d7d7d" stroke-width="1.0" d="M0.5,0.5 L64.5,0.5 L64.5,63.5 L0.5,63.5 L0.5,0.5 Z"/>
    <path id="Rectangle-2" fill="none" stroke="#7d7d7d" stroke-width="1.0" d="M0.5,63.7 L64.6,63.7 L64.6,128.5 L0.5,128.5 L0.5,63.7 Z"/>
  </g>
  <path id="Untitled-1" fill="#7d7d7d" d="M27.8,68.5 L27.8,68.5 C40.7,68.5 51.2,78.1 51.2,89.9 C51.2,101.8 40.7,111.4 27.8,111.4 C26.6,111.4 25.4,111.3 24.2,111.1 C19.2,116.8 13.4,117.8 7.6,118.0 L7.6,116.6 C10.7,114.9 13.2,111.7 13.2,108.1 C13.2,107.6 13.2,107.1 13.2,106.6 C7.9,102.7 4.5,96.7 4.5,89.9 C4.5,78.1 14.9,68.5 27.8,68.5 ZM52.9,116.6 C52.9,119.7 54.7,122.4 57.4,123.9 L57.4,125.0 C52.4,124.9 47.8,124.0 43.4,119.2 C42.4,119.3 41.4,119.4 40.3,119.4 C35.6,119.4 31.4,118.0 27.9,115.6 C35.0,115.6 41.6,113.0 46.7,108.4 C49.2,106.0 51.2,103.3 52.6,100.2 C54.1,97.0 54.9,93.5 54.9,89.9 C54.9,89.4 54.8,88.8 54.8,88.2 C58.3,91.5 60.5,96.0 60.5,101.0 C60.5,106.8 57.6,111.9 53.0,115.3 C52.9,115.7 52.9,116.1 52.9,116.6 Z"/>
  <path id="Untitled-2" fill="#000" d="M27.8,134.0 L27.8,134.0 C40.7,134.0 51.2,143.6 51.2,155.4 C51.2,167.3 40.7,176.9 27.8,176.9 C26.6,176.9 25.4,176.8 24.2,176.6 C19.2,182.3 13.4,183.3 7.6,183.4 L7.6,182.0 C10.7,180.3 13.2,177.2 13.2,173.6 C13.2,173.1 13.2,172.6 13.2,172.1 C7.9,168.1 4.5,162.1 4.5,155.4 C4.5,143.6 14.9,134.0 27.8,134.0 ZM52.9,182.0 C52.9,185.1 54.7,187.8 57.4,189.3 L57.4,190.5 C52.4,190.4 47.8,189.5 43.4,184.6 C42.4,184.8 41.4,184.9 40.3,184.9 C35.6,184.9 31.4,183.4 27.9,181.1 C35.0,181.0 41.6,178.5 46.7,173.8 C49.2,171.5 51.2,168.8 52.6,165.7 C54.1,162.4 54.9,159.0 54.9,155.4 C54.9,154.8 54.8,154.3 54.8,153.7 C58.3,157.0 60.5,161.5 60.5,166.5 C60.5,172.2 57.6,177.4 53.0,180.8 C52.9,181.2 52.9,181.6 52.9,182.0 Z"/>
</svg>
