<?xml version="1.0" encoding="UTF-8"?>
<!-- Generator: Bez 1.1.0u (15340) - http://www.juicybitssoftware.com/bez -->
<svg width="64.0" height="192.0" version="1.1" xmlns="http://www.w3.org/2000/svg" xmlns:xlink="http://www.w3.org/1999/xlink">
  <title>Orders-3</title>
  <desc>Created with Bez</desc>
  <path id="Rectangle" fill="#e4f6ff" stroke="#7d7d7d" stroke-width="1.0" d="M-0.1,128.0 L64.0,128.0 L64.0,192.0 L-0.1,192.0 L-0.1,128.0 Z"/>
  <path id="Rectangle-1" fill="none" stroke="#7d7d7d" stroke-width="1.0" d="M-0.1,0.0 L64.0,0.0 L64.0,64.0 L-0.1,64.0 L-0.1,0.0 Z"/>
  <path id="Rectangle-2" fill="none" stroke="#7d7d7d" stroke-width="1.0" d="M0.0,64.0 L64.0,64.0 L64.0,128.0 L0.0,128.0 L0.0,64.0 Z"/>
  <g id="Group">
    <path id="Untitled" fill="#000" d="M29.0,24.6 C37.8,24.6 37.0,24.6 45.9,24.6 C48.1,24.6 48.1,21.5 45.9,21.5 C37.0,21.5 37.8,21.5 29.0,21.5 C26.7,21.5 26.7,24.6 29.0,24.6 Z"/>
    <path id="Untitled-1" fill="#000" d="M45.9,30.1 C37.0,30.1 37.8,30.1 29.0,30.1 C26.7,30.1 26.7,33.2 29.0,33.2 C37.8,33.2 37.0,33.2 45.9,33.2 C48.1,33.2 48.1,30.1 45.9,30.1 Z"/>
    <path id="Untitled-2" fill="#000" d="M45.9,38.2 C37.0,38.2 37.8,38.2 29.0,38.2 C26.7,38.2 26.7,41.3 29.0,41.3 C37.8,41.3 37.0,41.3 45.9,41.3 C48.1,41.3 48.1,38.2 45.9,38.2 Z"/>
    <path id="Untitled-3" fill="#000" d="M45.9,46.8 C37.0,46.8 37.8,46.8 29.0,46.8 C26.7,46.8 26.7,49.9 29.0,49.9 C37.8,49.9 37.0,49.9 45.9,49.9 C48.1,49.9 48.1,46.8 45.9,46.8 Z"/>
    <path id="Untitled-4" fill="#000" d="M21.4,19.7 L20.9,20.3 C20.3,21.1 19.7,21.9 19.2,22.7 C19.2,22.7 19.2,22.7 19.2,22.7 L18.8,22.4 C18.2,21.8 17.1,22.0 16.7,22.7 C16.5,23.2 16.6,23.6 16.9,24.0 L17.2,24.4 C17.7,24.8 18.1,25.3 18.6,25.7 C18.9,25.9 19.2,26.0 19.6,26.0 C20.1,26.0 20.6,25.7 20.8,25.2 C21.3,24.0 22.2,22.9 23.0,21.7 C23.2,21.5 23.4,21.2 23.6,21.0 C23.9,20.6 23.9,20.2 23.7,19.8 C23.3,19.1 22.0,19.0 21.4,19.7 Z"/>
    <path id="Untitled-5" fill="#000" d="M20.6,28.2 L20.1,28.8 C19.5,29.6 18.9,30.4 18.4,31.2 C18.3,31.2 18.3,31.2 18.3,31.2 L18.0,30.9 C17.4,30.2 16.2,30.4 15.9,31.2 C15.6,31.6 15.7,32.1 16.1,32.5 L16.4,32.8 C16.9,33.3 17.3,33.7 17.8,34.2 C18.1,34.4 18.4,34.5 18.7,34.5 C19.3,34.5 19.8,34.2 20.0,33.7 C20.4,32.5 21.3,31.3 22.2,30.2 C22.4,29.9 22.6,29.7 22.8,29.4 C23.1,29.1 23.1,28.6 22.9,28.3 C22.5,27.6 21.1,27.4 20.6,28.2 Z"/>
    <path id="Untitled-6" fill="#000" d="M20.6,36.8 L20.1,37.5 C19.5,38.2 18.9,39.0 18.4,39.9 C18.3,39.9 18.3,39.9 18.3,39.8 L18.0,39.5 C17.4,38.9 16.2,39.1 15.9,39.8 C15.6,40.3 15.7,40.8 16.1,41.1 L16.4,41.5 C16.9,41.9 17.3,42.4 17.8,42.8 C18.1,43.0 18.4,43.2 18.7,43.2 C19.3,43.2 19.8,42.8 20.0,42.3 C20.4,41.1 21.3,40.0 22.2,38.9 C22.4,38.6 22.6,38.3 22.8,38.1 C23.1,37.7 23.1,37.3 22.9,36.9 C22.5,36.2 21.1,36.1 20.6,36.8 Z"/>
    <path id="Untitled-7" fill="#000" d="M20.6,45.7 L20.1,46.3 C19.5,47.1 18.9,47.9 18.4,48.7 C18.3,48.7 18.3,48.7 18.3,48.7 L18.0,48.4 C17.4,47.7 16.2,47.9 15.9,48.7 C15.6,49.1 15.7,49.6 16.1,50.0 L16.4,50.3 C16.9,50.8 17.3,51.3 17.8,51.7 C18.1,51.9 18.4,52.0 18.7,52.0 C19.3,52.0 19.8,51.7 20.0,51.2 C20.4,50.0 21.3,48.8 22.2,47.7 C22.4,47.4 22.6,47.2 22.8,46.9 C23.1,46.6 23.1,46.2 22.9,45.8 C22.5,45.1 21.1,44.9 20.6,45.7 Z"/>
    <path id="Untitled-8" fill="#000" d="M47.1,4.0 L8.0,4.0 L8.0,60.0 L56.0,60.0 L56.0,11.8 L47.1,4.0 ZM51.9,56.3 L12.1,56.3 L12.1,7.7 L44.9,7.7 L44.9,13.6 L51.9,13.6 L51.9,56.3 L51.9,56.3 Z"/>
  </g>
  <g id="Group-1">
    <path id="Untitled-9" fill="#7d7d7d" d="M29.0,88.6 C37.8,88.6 37.0,88.6 45.9,88.6 C48.1,88.6 48.1,85.5 45.9,85.5 C37.0,85.5 37.8,85.5 29.0,85.5 C26.7,85.5 26.7,88.6 29.0,88.6 Z"/>
    <path id="Untitled-10" fill="#7d7d7d" d="M45.9,94.1 C37.0,94.1 37.8,94.1 29.0,94.1 C26.7,94.1 26.7,97.2 29.0,97.2 C37.8,97.2 37.0,97.2 45.9,97.2 C48.1,97.2 48.1,94.1 45.9,94.1 Z"/>
    <path id="Untitled-11" fill="#7d7d7d" d="M45.9,102.2 C37.0,102.2 37.8,102.2 29.0,102.2 C26.7,102.2 26.7,105.3 29.0,105.3 C37.8,105.3 37.0,105.3 45.9,105.3 C48.1,105.3 48.1,102.2 45.9,102.2 Z"/>
    <path id="Untitled-12" fill="#7d7d7d" d="M45.9,110.8 C37.0,110.8 37.8,110.8 29.0,110.8 C26.7,110.8 26.7,113.9 29.0,113.9 C37.8,113.9 37.0,113.9 45.9,113.9 C48.1,113.9 48.1,110.8 45.9,110.8 Z"/>
    <path id="Untitled-13" fill="#7d7d7d" d="M21.4,83.7 L20.9,84.3 C20.3,85.1 19.7,85.9 19.2,86.7 C19.2,86.7 19.2,86.7 19.2,86.7 L18.8,86.4 C18.2,85.8 17.1,86.0 16.7,86.7 C16.5,87.2 16.6,87.6 16.9,88.0 L17.2,88.4 C17.7,88.8 18.1,89.3 18.6,89.7 C18.9,89.9 19.2,90.0 19.6,90.0 C20.1,90.0 20.6,89.7 20.8,89.2 C21.3,88.0 22.2,86.9 23.0,85.7 C23.2,85.5 23.4,85.2 23.6,85.0 C23.9,84.6 23.9,84.2 23.7,83.8 C23.3,83.1 22.0,83.0 21.4,83.7 Z"/>
    <path id="Untitled-14" fill="#7d7d7d" d="M20.6,92.2 L20.1,92.8 C19.5,93.6 18.9,94.4 18.4,95.2 C18.3,95.2 18.3,95.2 18.3,95.2 L18.0,94.9 C17.4,94.2 16.2,94.4 15.9,95.2 C15.6,95.6 15.7,96.1 16.1,96.5 L16.4,96.8 C16.9,97.3 17.3,97.7 17.8,98.2 C18.1,98.4 18.4,98.5 18.7,98.5 C19.3,98.5 19.8,98.2 20.0,97.7 C20.4,96.5 21.3,95.3 22.2,94.2 C22.4,93.9 22.6,93.7 22.8,93.4 C23.1,93.1 23.1,92.6 22.9,92.3 C22.5,91.6 21.1,91.4 20.6,92.2 Z"/>
    <path id="Untitled-15" fill="#7d7d7d" d="M20.6,100.8 L20.1,101.5 C19.5,102.2 18.9,103.0 18.4,103.9 C18.3,103.9 18.3,103.9 18.3,103.8 L18.0,103.5 C17.4,102.9 16.2,103.1 15.9,103.8 C15.6,104.3 15.7,104.8 16.1,105.1 L16.4,105.5 C16.9,105.9 17.3,106.4 17.8,106.8 C18.1,107.0 18.4,107.2 18.7,107.2 C19.3,107.2 19.8,106.8 20.0,106.3 C20.4,105.1 21.3,104.0 22.2,102.9 C22.4,102.6 22.6,102.3 22.8,102.1 C23.1,101.7 23.1,101.3 22.9,100.9 C22.5,100.2 21.1,100.1 20.6,100.8 Z"/>
    <path id="Untitled-16" fill="#7d7d7d" d="M20.6,109.7 L20.1,110.3 C19.5,111.1 18.9,111.9 18.4,112.7 C18.3,112.7 18.3,112.7 18.3,112.7 L18.0,112.4 C17.4,111.7 16.2,111.9 15.9,112.7 C15.6,113.1 15.7,113.6 16.1,114.0 L16.4,114.3 C16.9,114.8 17.3,115.3 17.8,115.7 C18.1,115.9 18.4,116.0 18.7,116.0 C19.3,116.0 19.8,115.7 20.0,115.2 C20.4,114.0 21.3,112.8 22.2,111.7 C22.4,111.4 22.6,111.2 22.8,110.9 C23.1,110.6 23.1,110.2 22.9,109.8 C22.5,109.1 21.1,108.9 20.6,109.7 Z"/>
    <path id="Untitled-17" fill="#7d7d7d" d="M47.1,68.0 L8.0,68.0 L8.0,124.0 L56.0,124.0 L56.0,75.8 L47.1,68.0 ZM51.9,120.3 L12.1,120.3 L12.1,71.7 L44.9,71.7 L44.9,77.6 L51.9,77.6 L51.9,120.3 L51.9,120.3 Z"/>
  </g>
  <g id="Group-2">
    <path id="Untitled-18" fill="#000" d="M29.0,152.6 C37.8,152.6 37.0,152.6 45.9,152.6 C48.1,152.6 48.1,149.5 45.9,149.5 C37.0,149.5 37.8,149.5 29.0,149.5 C26.7,149.5 26.7,152.6 29.0,152.6 Z"/>
    <path id="Untitled-19" fill="#000" d="M45.9,158.1 C37.0,158.1 37.8,158.1 29.0,158.1 C26.7,158.1 26.7,161.2 29.0,161.2 C37.8,161.2 37.0,161.2 45.9,161.2 C48.1,161.2 48.1,158.1 45.9,158.1 Z"/>
    <path id="Untitled-20" fill="#000" d="M45.9,166.2 C37.0,166.2 37.8,166.2 29.0,166.2 C26.7,166.2 26.7,169.3 29.0,169.3 C37.8,169.3 37.0,169.3 45.9,169.3 C48.1,169.3 48.1,166.2 45.9,166.2 Z"/>
    <path id="Untitled-21" fill="#000" d="M45.9,174.8 C37.0,174.8 37.8,174.8 29.0,174.8 C26.7,174.8 26.7,177.9 29.0,177.9 C37.8,177.9 37.0,177.9 45.9,177.9 C48.1,177.9 48.1,174.8 45.9,174.8 Z"/>
    <path id="Untitled-22" fill="#000" d="M21.4,147.7 L20.9,148.3 C20.3,149.1 19.7,149.9 19.2,150.7 C19.2,150.7 19.2,150.7 19.2,150.7 L18.8,150.4 C18.2,149.8 17.1,150.0 16.7,150.7 C16.5,151.2 16.6,151.6 16.9,152.0 L17.2,152.4 C17.7,152.8 18.1,153.3 18.6,153.7 C18.9,153.9 19.2,154.0 19.6,154.0 C20.1,154.0 20.6,153.7 20.8,153.2 C21.3,152.0 22.2,150.9 23.0,149.7 C23.2,149.5 23.4,149.2 23.6,149.0 C23.9,148.6 23.9,148.2 23.7,147.8 C23.3,147.1 22.0,147.0 21.4,147.7 Z"/>
    <path id="Untitled-23" fill="#000" d="M20.6,156.2 L20.1,156.8 C19.5,157.6 18.9,158.4 18.4,159.2 C18.3,159.2 18.3,159.2 18.3,159.2 L18.0,158.9 C17.4,158.2 16.2,158.4 15.9,159.2 C15.6,159.6 15.7,160.1 16.1,160.5 L16.4,160.8 C16.9,161.3 17.3,161.7 17.8,162.2 C18.1,162.4 18.4,162.5 18.7,162.5 C19.3,162.5 19.8,162.2 20.0,161.7 C20.4,160.5 21.3,159.3 22.2,158.2 C22.4,157.9 22.6,157.7 22.8,157.4 C23.1,157.1 23.1,156.6 22.9,156.3 C22.5,155.6 21.1,155.4 20.6,156.2 Z"/>
    <path id="Untitled-24" fill="#000" d="M20.6,164.8 L20.1,165.5 C19.5,166.2 18.9,167.0 18.4,167.9 C18.3,167.9 18.3,167.9 18.3,167.8 L18.0,167.5 C17.4,166.9 16.2,167.1 15.9,167.8 C15.6,168.3 15.7,168.8 16.1,169.1 L16.4,169.5 C16.9,169.9 17.3,170.4 17.8,170.8 C18.1,171.0 18.4,171.2 18.7,171.2 C19.3,171.2 19.8,170.8 20.0,170.3 C20.4,169.1 21.3,168.0 22.2,166.9 C22.4,166.6 22.6,166.3 22.8,166.1 C23.1,165.7 23.1,165.3 22.9,164.9 C22.5,164.2 21.1,164.1 20.6,164.8 Z"/>
    <path id="Untitled-25" fill="#000" d="M20.6,173.7 L20.1,174.3 C19.5,175.1 18.9,175.9 18.4,176.7 C18.3,176.7 18.3,176.7 18.3,176.7 L18.0,176.4 C17.4,175.7 16.2,175.9 15.9,176.7 C15.6,177.1 15.7,177.6 16.1,178.0 L16.4,178.3 C16.9,178.8 17.3,179.3 17.8,179.7 C18.1,179.9 18.4,180.0 18.7,180.0 C19.3,180.0 19.8,179.7 20.0,179.2 C20.4,178.0 21.3,176.8 22.2,175.7 C22.4,175.4 22.6,175.2 22.8,174.9 C23.1,174.6 23.1,174.2 22.9,173.8 C22.5,173.1 21.1,172.9 20.6,173.7 Z"/>
    <path id="Untitled-26" fill="#000" d="M47.1,132.0 L8.0,132.0 L8.0,188.0 L56.0,188.0 L56.0,139.8 L47.1,132.0 ZM51.9,184.3 L12.1,184.3 L12.1,135.7 L44.9,135.7 L44.9,141.6 L51.9,141.6 L51.9,184.3 L51.9,184.3 Z"/>
  </g>
</svg>
