<?xml version="1.0" encoding="UTF-8"?>
<!-- Generator: Bez 1.1.0u (15340) - http://www.juicybitssoftware.com/bez -->
<svg width="64.0" height="192.0" version="1.1" xmlns="http://www.w3.org/2000/svg" xmlns:xlink="http://www.w3.org/1999/xlink">
  <title>Products-3</title>
  <desc>Created with Bez</desc>
  <g id="Group">
    <path id="Untitled" fill="#000" d="M4.3,13.7 C3.2,10.5 5.1,7.1 8.8,6.0 C12.4,5.0 16.2,6.7 17.4,9.9 L30.9,45.9 C29.7,45.6 28.4,45.5 27.0,45.8 L13.9,10.9 C13.4,9.5 11.5,8.6 9.9,9.1 C8.2,9.6 7.3,11.2 7.8,12.6 C8.2,13.5 7.6,14.4 6.6,14.7 C5.7,15.0 4.7,14.5 4.3,13.7 Z"/>
    <path id="Untitled-1" fill="#000" d="M57.5,41.9 L35.4,48.3 C36.2,49.1 36.8,50.1 37.2,51.1 C37.2,51.2 37.2,51.2 37.3,51.2 L58.7,45.0 C59.7,44.7 60.2,43.8 59.9,43.0 C59.6,42.1 58.5,41.6 57.5,41.9 Z"/>
    <path id="Untitled-2" fill="#000" d="M35.5,51.6 C34.2,48.3 30.1,46.5 26.3,47.6 C22.5,48.7 20.5,52.3 21.7,55.6 C23.0,59.0 27.1,60.8 30.9,59.7 C34.7,58.5 36.7,54.9 35.5,51.6 ZM29.8,56.6 C27.8,57.2 25.8,56.3 25.2,54.6 C24.6,52.9 25.6,51.1 27.5,50.6 C29.4,50.0 31.5,50.9 32.1,52.6 C32.6,54.3 31.7,56.1 29.8,56.6 Z"/>
    <path id="Untitled-3" fill="#000" d="M41.8,17.2 L37.0,4.4 C36.9,4.1 36.5,4.0 36.3,4.0 L29.9,5.9 L31.7,10.7 L29.2,11.4 L27.4,6.6 L21.1,8.5 C20.8,8.6 20.7,8.9 20.7,9.1 L25.5,21.9 C25.7,22.2 26.0,22.3 26.3,22.3 L41.4,17.9 C41.7,17.7 41.9,17.5 41.8,17.2 Z"/>
    <path id="Untitled-4" fill="#000" d="M59.3,37.4 L51.9,17.6 C51.7,17.1 51.1,16.9 50.8,17.0 L40.9,20.0 L43.6,27.4 L39.9,28.5 L37.1,21.1 L27.3,24.0 C26.8,24.2 26.6,24.6 26.7,25.0 L34.2,44.8 C34.4,45.3 34.9,45.5 35.3,45.4 L58.8,38.5 C59.2,38.3 59.5,37.8 59.3,37.4 Z"/>
  </g>
  <g id="Group-1">
    <path id="Rectangle" fill="#e4f6ff" stroke="#7d7d7d" stroke-width="1.0" d="M0.0,128.0 L63.5,128.0 L63.5,192.0 L0.0,192.0 L0.0,128.0 Z"/>
    <path id="Rectangle-1" fill="none" stroke="#7d7d7d" stroke-width="1.0" d="M0.0,-0.0 L64.0,-0.0 L64.0,63.0 L0.0,63.0 L0.0,-0.0 Z"/>
    <path id="Rectangle-2" fill="none" stroke="#7d7d7d" stroke-width="1.0" d="M-0.3,63.2 L63.9,63.2 L63.9,128.0 L-0.3,128.0 L-0.3,63.2 Z"/>
  </g>
  <g id="Group-2">
    <path id="Untitled-5" fill="#000" d="M4.3,141.7 C3.2,138.5 5.1,135.1 8.8,134.0 C12.4,133.0 16.2,134.7 17.4,137.9 L30.9,173.9 C29.7,173.6 28.4,173.5 27.0,173.8 L13.9,138.9 C13.4,137.5 11.5,136.6 9.9,137.1 C8.2,137.6 7.3,139.2 7.8,140.6 C8.2,141.5 7.6,142.4 6.6,142.7 C5.7,143.0 4.7,142.5 4.3,141.7 Z"/>
    <path id="Untitled-6" fill="#000" d="M57.5,169.9 L35.4,176.3 C36.2,177.1 36.8,178.1 37.2,179.1 C37.2,179.2 37.2,179.2 37.3,179.2 L58.7,173.0 C59.7,172.7 60.2,171.8 59.9,171.0 C59.6,170.1 58.5,169.6 57.5,169.9 Z"/>
    <path id="Untitled-7" fill="#000" d="M35.5,179.6 C34.2,176.3 30.1,174.5 26.3,175.6 C22.5,176.7 20.5,180.3 21.7,183.6 C23.0,187.0 27.1,188.8 30.9,187.7 C34.7,186.5 36.7,182.9 35.5,179.6 ZM29.8,184.6 C27.8,185.2 25.8,184.3 25.2,182.6 C24.6,180.9 25.6,179.1 27.5,178.6 C29.4,178.0 31.5,178.9 32.1,180.6 C32.6,182.3 31.7,184.1 29.8,184.6 Z"/>
    <path id="Untitled-8" fill="#000" d="M41.8,145.2 L37.0,132.4 C36.9,132.1 36.5,132.0 36.3,132.0 L29.9,133.9 L31.7,138.7 L29.2,139.4 L27.4,134.6 L21.1,136.5 C20.8,136.6 20.7,136.9 20.7,137.1 L25.5,149.9 C25.7,150.2 26.0,150.3 26.3,150.3 L41.4,145.9 C41.7,145.7 41.9,145.5 41.8,145.2 Z"/>
    <path id="Untitled-9" fill="#000" d="M59.3,165.4 L51.9,145.6 C51.7,145.1 51.1,144.9 50.8,145.0 L40.9,148.0 L43.6,155.4 L39.9,156.5 L37.1,149.1 L27.3,152.0 C26.8,152.2 26.6,152.6 26.7,153.0 L34.2,172.8 C34.4,173.3 34.9,173.5 35.3,173.4 L58.8,166.5 C59.2,166.3 59.5,165.8 59.3,165.4 Z"/>
  </g>
  <g id="Group-3">
    <path id="Untitled-10" fill="#7d7d7d" d="M4.3,77.7 C3.2,74.5 5.1,71.1 8.8,70.0 C12.4,69.0 16.2,70.7 17.4,73.9 L30.9,109.9 C29.7,109.6 28.4,109.5 27.0,109.8 L13.9,74.9 C13.4,73.5 11.5,72.6 9.9,73.1 C8.2,73.6 7.3,75.2 7.8,76.6 C8.2,77.5 7.6,78.4 6.6,78.7 C5.7,79.0 4.7,78.5 4.3,77.7 Z"/>
    <path id="Untitled-11" fill="#7d7d7d" d="M57.5,105.9 L35.4,112.3 C36.2,113.1 36.8,114.1 37.2,115.1 C37.2,115.2 37.2,115.2 37.3,115.2 L58.7,109.0 C59.7,108.7 60.2,107.8 59.9,107.0 C59.6,106.1 58.5,105.6 57.5,105.9 Z"/>
    <path id="Untitled-12" fill="#7d7d7d" d="M35.5,115.6 C34.2,112.3 30.1,110.5 26.3,111.6 C22.5,112.7 20.5,116.3 21.7,119.6 C23.0,123.0 27.1,124.8 30.9,123.7 C34.7,122.5 36.7,118.9 35.5,115.6 ZM29.8,120.6 C27.8,121.2 25.8,120.3 25.2,118.6 C24.6,116.9 25.6,115.1 27.5,114.6 C29.4,114.0 31.5,114.9 32.1,116.6 C32.6,118.3 31.7,120.1 29.8,120.6 Z"/>
    <path id="Untitled-13" fill="#7d7d7d" d="M41.8,81.2 L37.0,68.4 C36.9,68.1 36.5,68.0 36.3,68.0 L29.9,69.9 L31.7,74.7 L29.2,75.4 L27.4,70.6 L21.1,72.5 C20.8,72.6 20.7,72.9 20.7,73.1 L25.5,85.9 C25.7,86.2 26.0,86.3 26.3,86.3 L41.4,81.9 C41.7,81.7 41.9,81.5 41.8,81.2 Z"/>
    <path id="Untitled-14" fill="#7d7d7d" d="M59.3,101.4 L51.9,81.6 C51.7,81.1 51.1,80.9 50.8,81.0 L40.9,84.0 L43.6,91.4 L39.9,92.5 L37.1,85.1 L27.3,88.0 C26.8,88.2 26.6,88.6 26.7,89.0 L34.2,108.8 C34.4,109.3 34.9,109.5 35.3,109.4 L58.8,102.5 C59.2,102.3 59.5,101.8 59.3,101.4 Z"/>
  </g>
</svg>
