<?xml version="1.0" encoding="UTF-8"?>
<!-- Generator: Bez 1.1.0u (15340) - http://www.juicybitssoftware.com/bez -->
<svg width="64.0" height="192.0" version="1.1" xmlns="http://www.w3.org/2000/svg" xmlns:xlink="http://www.w3.org/1999/xlink">
  <title>QuickQuote-3</title>
  <desc>Created with Bez</desc>
  <path id="Rectangle" fill="#e4f6ff" stroke="#7d7d7d" stroke-width="1.0" d="M0.0,128.0 L63.5,128.0 L63.5,192.0 L0.0,192.0 L0.0,128.0 Z"/>
  <path id="Rectangle-1" fill="none" stroke="#7d7d7d" stroke-width="1.0" d="M-0.0,0.0 L64.0,0.0 L64.0,63.0 L-0.0,63.0 L-0.0,0.0 Z"/>
  <g id="Group">
    <g id="Group-1">
      <path id="Untitled" fill="#7d7d7d" d="M56.5,97.9 L56.5,120.3 L15.7,120.3 L15.7,97.9 L56.5,97.9 M60.0,94.3 L12.2,94.3 L12.2,124.0 L60.0,124.0 L60.0,94.3 L60.0,94.3 Z"/>
      <path id="Untitled-1" fill="#7d7d7d" d="M47.0,94.3 L51.9,99.4 C51.8,99.6 51.7,99.8 51.7,100.0 C51.7,101.6 53.0,103.0 54.6,103.0 C54.8,103.0 54.9,102.9 55.1,102.8 L60.0,108.0 L60.0,94.3 L47.0,94.3 L47.0,94.3 Z"/>
      <path id="Untitled-2" fill="#7d7d7d" d="M31.1,109.1 C31.1,106.6 33.3,104.6 36.1,104.6 C38.9,104.6 41.1,106.6 41.1,109.1 C41.1,111.7 38.9,113.7 36.1,113.7 C33.3,113.7 31.1,111.7 31.1,109.1 Z"/>
      <path id="Untitled-3" fill="#7d7d7d" d="M12.2,108.0 L17.1,102.8 C17.3,102.9 17.4,103.0 17.6,103.0 C19.2,103.0 20.4,101.6 20.4,100.0 C20.4,99.8 20.4,99.6 20.3,99.4 L25.2,94.3 L12.2,94.3 L12.2,108.0 L12.2,108.0 Z"/>
      <path id="Untitled-4" fill="#7d7d7d" d="M20.4,118.3 C20.4,116.6 19.2,115.3 17.6,115.3 C17.4,115.3 17.3,115.4 17.1,115.4 L12.2,110.3 L12.2,124.0 L25.2,124.0 L20.3,118.8 C20.4,118.7 20.4,118.5 20.4,118.3 Z"/>
      <path id="Untitled-5" fill="#7d7d7d" d="M54.6,115.3 C53.0,115.3 51.7,116.6 51.7,118.3 C51.7,118.5 51.8,118.7 51.9,118.8 L47.0,124.0 L60.0,124.0 L60.0,110.3 L55.1,115.4 C54.9,115.4 54.8,115.3 54.6,115.3 Z"/>
      <path id="Untitled-6" fill="#7d7d7d" d="M8.9,94.3 C8.9,92.4 10.4,90.8 12.2,90.8 L14.0,90.8 L14.1,90.5 L39.2,76.0 L41.1,76.6 C41.2,76.8 41.2,77.0 41.3,77.2 C42.1,78.6 43.8,79.1 45.1,78.4 C45.3,78.3 45.4,78.1 45.5,78.0 L47.5,78.6 L51.9,87.0 L51.3,89.0 C51.1,89.1 50.9,89.1 50.8,89.2 C50.1,89.6 49.7,90.2 49.5,90.8 L57.8,90.8 L52.2,80.0 L52.2,80.0 L45.9,68.0 L34.5,74.6 L34.5,74.6 L15.4,85.6 L4.0,92.2 L8.9,101.7 L8.9,94.3 L8.9,94.3 Z"/>
      <path id="Untitled-7" fill="#7d7d7d" d="M28.2,86.3 C26.3,87.4 24.9,89.0 24.2,90.8 L39.9,90.8 C39.8,90.1 39.6,89.5 39.2,88.8 C37.3,85.0 32.3,83.9 28.2,86.3 Z"/>
    </g>
  </g>
  <g id="Group-2">
    <path id="Untitled-8" fill="#000" d="M56.5,161.9 L56.5,184.3 L15.7,184.3 L15.7,161.9 L56.5,161.9 M60.0,158.3 L12.2,158.3 L12.2,188.0 L60.0,188.0 L60.0,158.3 L60.0,158.3 Z"/>
    <path id="Untitled-9" fill="#000" d="M47.0,158.3 L51.9,163.4 C51.8,163.6 51.7,163.8 51.7,164.0 C51.7,165.6 53.0,167.0 54.6,167.0 C54.8,167.0 54.9,166.9 55.1,166.8 L60.0,172.0 L60.0,158.3 L47.0,158.3 L47.0,158.3 Z"/>
    <path id="Untitled-10" fill="#000" d="M44.6,173.1 C44.6,177.4 40.8,180.9 36.1,180.9 C31.4,180.9 27.6,177.4 27.6,173.1 C27.6,168.8 31.4,165.3 36.1,165.3 C40.8,165.3 44.6,168.8 44.6,173.1 Z"/>
    <path id="Untitled-11" fill="#000" d="M12.2,172.0 L17.1,166.8 C17.3,166.9 17.4,167.0 17.6,167.0 C19.2,167.0 20.4,165.6 20.4,164.0 C20.4,163.8 20.4,163.6 20.3,163.4 L25.2,158.3 L12.2,158.3 L12.2,172.0 L12.2,172.0 Z"/>
    <path id="Untitled-12" fill="#000" d="M20.4,182.3 C20.4,180.6 19.2,179.3 17.6,179.3 C17.4,179.3 17.3,179.4 17.1,179.4 L12.2,174.3 L12.2,188.0 L25.2,188.0 L20.3,182.8 C20.4,182.7 20.4,182.5 20.4,182.3 Z"/>
    <path id="Untitled-13" fill="#000" d="M54.6,179.3 C53.0,179.3 51.7,180.6 51.7,182.3 C51.7,182.5 51.8,182.7 51.9,182.8 L47.0,188.0 L60.0,188.0 L60.0,174.3 L55.1,179.4 C54.9,179.4 54.8,179.3 54.6,179.3 Z"/>
    <path id="Untitled-14" fill="#000" d="M8.9,158.3 C8.9,156.4 10.4,154.8 12.2,154.8 L14.0,154.8 L14.1,154.5 L39.2,140.0 L41.1,140.6 C41.2,140.8 41.2,141.0 41.3,141.2 C42.1,142.6 43.8,143.1 45.1,142.4 C45.3,142.3 45.4,142.1 45.5,142.0 L47.5,142.6 L51.9,151.0 L51.3,153.0 C51.1,153.1 50.9,153.1 50.8,153.2 C50.1,153.6 49.7,154.2 49.5,154.8 L57.8,154.8 L52.2,144.0 L52.2,144.0 L45.9,132.0 L34.5,138.6 L34.5,138.6 L15.4,149.6 L4.0,156.2 L8.9,165.7 L8.9,158.3 L8.9,158.3 Z"/>
    <path id="Untitled-15" fill="#000" d="M28.2,150.3 C26.3,151.4 24.9,153.0 24.2,154.8 L39.9,154.8 C39.8,154.1 39.6,153.5 39.2,152.8 C37.3,149.0 32.3,147.9 28.2,150.3 Z"/>
  </g>
  <g id="Group-3">
    <path id="Untitled-16" fill="#000" d="M56.5,33.9 L56.5,56.3 L15.7,56.3 L15.7,33.9 L56.5,33.9 M60.0,30.3 L12.2,30.3 L12.2,60.0 L60.0,60.0 L60.0,30.3 L60.0,30.3 Z"/>
    <path id="Untitled-17" fill="#000" d="M47.0,30.3 L51.9,35.4 C51.8,35.6 51.7,35.8 51.7,36.0 C51.7,37.6 53.0,39.0 54.6,39.0 C54.8,39.0 54.9,38.9 55.1,38.8 L60.0,44.0 L60.0,30.3 L47.0,30.3 L47.0,30.3 Z"/>
    <path id="Untitled-18" fill="#000" d="M44.6,45.1 C44.6,49.4 40.8,52.9 36.1,52.9 C31.4,52.9 27.6,49.4 27.6,45.1 C27.6,40.8 31.4,37.3 36.1,37.3 C40.8,37.3 44.6,40.8 44.6,45.1 Z"/>
    <path id="Untitled-19" fill="#000" d="M12.2,44.0 L17.1,38.8 C17.3,38.9 17.4,39.0 17.6,39.0 C19.2,39.0 20.4,37.6 20.4,36.0 C20.4,35.8 20.4,35.6 20.3,35.4 L25.2,30.3 L12.2,30.3 L12.2,44.0 L12.2,44.0 Z"/>
    <path id="Untitled-20" fill="#000" d="M20.4,54.3 C20.4,52.6 19.2,51.3 17.6,51.3 C17.4,51.3 17.3,51.4 17.1,51.4 L12.2,46.3 L12.2,60.0 L25.2,60.0 L20.3,54.8 C20.4,54.7 20.4,54.5 20.4,54.3 Z"/>
    <path id="Untitled-21" fill="#000" d="M54.6,51.3 C53.0,51.3 51.7,52.6 51.7,54.3 C51.7,54.5 51.8,54.7 51.9,54.8 L47.0,60.0 L60.0,60.0 L60.0,46.3 L55.1,51.4 C54.9,51.4 54.8,51.3 54.6,51.3 Z"/>
    <path id="Untitled-22" fill="#000" d="M8.9,30.3 C8.9,28.4 10.4,26.8 12.2,26.8 L14.0,26.8 L14.1,26.5 L39.2,12.0 L41.1,12.6 C41.2,12.8 41.2,13.0 41.3,13.2 C42.1,14.6 43.8,15.1 45.1,14.4 C45.3,14.3 45.4,14.1 45.5,14.0 L47.5,14.6 L51.9,23.0 L51.3,25.0 C51.1,25.1 50.9,25.1 50.8,25.2 C50.1,25.6 49.7,26.2 49.5,26.8 L57.8,26.8 L52.2,16.0 L52.2,16.0 L45.9,4.0 L34.5,10.6 L34.5,10.6 L15.4,21.6 L4.0,28.2 L8.9,37.7 L8.9,30.3 L8.9,30.3 Z"/>
    <path id="Untitled-23" fill="#000" d="M28.2,22.3 C26.3,23.4 24.9,25.0 24.2,26.8 L39.9,26.8 C39.8,26.1 39.6,25.5 39.2,24.8 C37.3,21.0 32.3,19.9 28.2,22.3 Z"/>
  </g>
  <path id="Rectangle-2" fill="none" stroke="#7d7d7d" stroke-width="1.0" d="M-0.3,63.2 L63.9,63.2 L63.9,128.0 L-0.3,128.0 L-0.3,63.2 Z"/>
</svg>
