<?xml version="1.0" encoding="UTF-8"?>
<!-- Generator: Bez 1.1.0u (15340) - http://www.juicybitssoftware.com/bez -->
<svg width="64.0" height="192.0" version="1.1" xmlns="http://www.w3.org/2000/svg" xmlns:xlink="http://www.w3.org/1999/xlink">
  <title>RTI-3</title>
  <desc>Created with Bez</desc>
  <g id="Group">
    <path id="Rectangle" fill="#e4f6ff" stroke="#7d7d7d" stroke-width="1.0" d="M0.0,128.0 L64.1,128.0 L64.1,192.0 L0.0,192.0 L0.0,128.0 Z"/>
    <path id="Rectangle-1" fill="none" stroke="#7d7d7d" stroke-width="1.0" d="M0.0,-0.0 L64.0,-0.0 L64.0,63.0 L0.0,63.0 L0.0,-0.0 Z"/>
    <path id="Rectangle-2" fill="none" stroke="#7d7d7d" stroke-width="1.0" d="M0.0,63.2 L64.1,63.2 L64.1,128.0 L0.0,128.0 L0.0,63.2 Z"/>
  </g>
  <g id="Group-1">
    <path id="Rectangle-3" fill="#000500" stroke="#000" stroke-width="1.0" stroke-linecap="round" stroke-linejoin="round" d="M4.0,60.0 L4.0,41.1 L12.0,41.1 L12.0,60.0 L4.0,60.0 Z"/>
    <path id="Rectangle-4" fill="#000500" stroke="#000" stroke-width="1.0" stroke-linecap="round" stroke-linejoin="round" d="M28.0,60.0 L28.0,31.3 L36.0,31.3 L36.0,60.0 L28.0,60.0 Z"/>
    <path id="Rectangle-5" fill="#000500" stroke="#000" stroke-width="1.0" stroke-linecap="round" stroke-linejoin="round" d="M40.0,60.0 L40.0,22.3 L48.0,22.3 L48.0,60.0 L40.0,60.0 Z"/>
    <path id="Rectangle-6" fill="#000500" stroke="#000" stroke-width="1.0" stroke-linecap="round" stroke-linejoin="round" d="M52.0,60.0 L52.0,11.4 L60.0,11.4 L60.0,60.0 L52.0,60.0 Z"/>
    <path id="Rectangle-7" fill="#000500" stroke="#000" stroke-width="1.0" stroke-linecap="round" stroke-linejoin="round" d="M16.0,60.0 L16.0,37.0 L24.0,37.0 L24.0,60.0 L16.0,60.0 Z"/>
    <g id="Group-2">
      <path id="Polygon" fill="#000" stroke="#000" stroke-width="2.0" stroke-linecap="round" stroke-linejoin="round" d="M46.5,4.4 L48.0,12.5 L38.0,8.3 L46.5,4.4 Z"/>
      <path id="Path" fill="none" stroke="#000" stroke-width="3.0" stroke-linecap="round" stroke-linejoin="round" d="M43.0,10.5 C43.0,10.5 40.9,15.7 32.1,22.1 C23.4,28.4 5.1,32.7 5.1,32.7"/>
    </g>
  </g>
  <g id="Group-3">
    <path id="Rectangle-8" fill="#7d7d7d" stroke="#7d7d7d" stroke-width="1.0" stroke-linecap="round" stroke-linejoin="round" d="M4.0,124.0 L4.0,105.1 L12.0,105.1 L12.0,124.0 L4.0,124.0 Z"/>
    <path id="Rectangle-9" fill="#7d7d7d" stroke="#7d7d7d" stroke-width="1.0" stroke-linecap="round" stroke-linejoin="round" d="M28.0,124.0 L28.0,95.3 L36.0,95.3 L36.0,124.0 L28.0,124.0 Z"/>
    <path id="Rectangle-10" fill="#7d7d7d" stroke="#7d7d7d" stroke-width="1.0" stroke-linecap="round" stroke-linejoin="round" d="M40.0,124.0 L40.0,86.3 L48.0,86.3 L48.0,124.0 L40.0,124.0 Z"/>
    <path id="Rectangle-11" fill="#7d7d7d" stroke="#7d7d7d" stroke-width="1.0" stroke-linecap="round" stroke-linejoin="round" d="M52.0,124.6 L52.0,76.0 L60.0,76.0 L60.0,124.6 L52.0,124.6 Z"/>
    <path id="Rectangle-12" fill="#7d7d7d" stroke="#7d7d7d" stroke-width="1.0" stroke-linecap="round" stroke-linejoin="round" d="M16.0,124.0 L16.0,101.0 L24.0,101.0 L24.0,124.0 L16.0,124.0 Z"/>
    <path id="Polygon-1" fill="#7d7d7d" stroke="#7d7d7d" stroke-width="2.0" stroke-linecap="round" stroke-linejoin="round" d="M46.5,68.4 L48.0,76.5 L38.0,72.3 L46.5,68.4 Z"/>
    <path id="Path-1" fill="none" stroke="#7d7d7d" stroke-width="3.0" stroke-linecap="round" stroke-linejoin="round" d="M43.0,74.5 C43.0,74.5 40.9,79.7 32.1,86.1 C23.4,92.4 5.1,96.7 5.1,96.7"/>
  </g>
  <g id="Group-4">
    <path id="Rectangle-13" fill="#000500" stroke="#000" stroke-width="1.0" stroke-linecap="round" stroke-linejoin="round" d="M4.0,188.0 L4.0,169.1 L12.0,169.1 L12.0,188.0 L4.0,188.0 Z"/>
    <path id="Rectangle-14" fill="#000500" stroke="#000" stroke-width="1.0" stroke-linecap="round" stroke-linejoin="round" d="M28.0,188.0 L28.0,159.3 L36.0,159.3 L36.0,188.0 L28.0,188.0 Z"/>
    <path id="Rectangle-15" fill="#000500" stroke="#000" stroke-width="1.0" stroke-linecap="round" stroke-linejoin="round" d="M40.0,188.0 L40.0,150.3 L48.0,150.3 L48.0,188.0 L40.0,188.0 Z"/>
    <path id="Rectangle-16" fill="#000500" stroke="#000" stroke-width="1.0" stroke-linecap="round" stroke-linejoin="round" d="M52.0,188.0 L52.0,139.4 L60.0,139.4 L60.0,188.0 L52.0,188.0 Z"/>
    <path id="Rectangle-17" fill="#000500" stroke="#000" stroke-width="1.0" stroke-linecap="round" stroke-linejoin="round" d="M16.0,188.0 L16.0,165.0 L24.0,165.0 L24.0,188.0 L16.0,188.0 Z"/>
    <g id="Group-5">
      <path id="Polygon-2" fill="#000" stroke="#000" stroke-width="2.0" stroke-linecap="round" stroke-linejoin="round" d="M46.5,132.4 L48.0,140.5 L38.0,136.3 L46.5,132.4 Z"/>
      <path id="Path-2" fill="none" stroke="#000" stroke-width="3.0" stroke-linecap="round" stroke-linejoin="round" d="M43.0,138.5 C43.0,138.5 40.9,143.7 32.1,150.1 C23.4,156.4 5.1,160.7 5.1,160.7"/>
    </g>
  </g>
</svg>
