<?xml version="1.0" encoding="UTF-8"?>
<!-- Generator: Bez 1.1.0u (15340) - http://www.juicybitssoftware.com/bez -->
<svg width="64.0" height="192.0" version="1.1" xmlns="http://www.w3.org/2000/svg" xmlns:xlink="http://www.w3.org/1999/xlink">
  <title>Transfer-3</title>
  <desc>Created with Bez</desc>
  <path id="path840" fill="none" stroke="#000" stroke-width="4.0" stroke-linejoin="round" d="M4.0,32.0 L20.6,8.0 L20.6,21.8 L43.4,21.8 L43.4,8.0 L60.0,32.0 L43.4,56.0 L43.4,42.2 L20.6,42.2 L20.6,56.0 L4.0,32.0 Z"/>
  <g id="Group">
    <path id="Rectangle" fill="#e4f6ff" stroke="#7d7d7d" stroke-width="1.0" d="M0.0,128.0 L63.5,128.0 L63.5,192.0 L0.0,192.0 L0.0,128.0 Z"/>
    <path id="Rectangle-1" fill="none" stroke="#7d7d7d" stroke-width="1.0" d="M0.0,-0.0 L64.0,-0.0 L64.0,63.0 L0.0,63.0 L0.0,-0.0 Z"/>
    <path id="Rectangle-2" fill="none" stroke="#7d7d7d" stroke-width="1.0" d="M-0.3,63.2 L63.9,63.2 L63.9,128.0 L-0.3,128.0 L-0.3,63.2 Z"/>
  </g>
  <path id="path840-1" fill="none" stroke="#000" stroke-width="4.0" stroke-linejoin="round" d="M4.0,160.0 L20.6,136.0 L20.6,149.8 L43.4,149.8 L43.4,136.0 L60.0,160.0 L43.4,184.0 L43.4,170.2 L20.6,170.2 L20.6,184.0 L4.0,160.0 Z"/>
  <path id="path840-2" fill="none" stroke="#7d7d7d" stroke-width="4.0" stroke-linejoin="round" d="M4.0,96.0 L20.6,72.0 L20.6,85.8 L43.4,85.8 L43.4,72.0 L60.0,96.0 L43.4,120.0 L43.4,106.2 L20.6,106.2 L20.6,120.0 L4.0,96.0 Z"/>
</svg>
